<svg xmlns="http://www.w3.org/2000/svg" xmlns:xlink="http://www.w3.org/1999/xlink" width="210" height="40" viewBox="0 0 210 40">
  <defs>
    <style>
      .cls-1 {
        fill-rule: evenodd;
        filter: url(#filter);
      }
    </style>
    <filter id="filter" x="83" y="62" width="210" height="40" filterUnits="userSpaceOnUse">
      <feFlood result="flood" flood-color="#f4ce1b"/>
      <feComposite result="composite" operator="in" in2="SourceGraphic"/>
      <feBlend result="blend" in2="SourceGraphic"/>
    </filter>
  </defs>
  <path id="Mezz_Cues_ロゴ_のコピー" data-name="Mezz Cues ロゴ のコピー" class="cls-1" d="M289.461,65.641l1.048-.068c0.041,0,.082,0,0.122,0a1.264,1.264,0,0,1,.728.2,0.656,0.656,0,0,1,.285.581,0.743,0.743,0,0,1-.278.6,1.15,1.15,0,0,1-.2.153l-0.108.063,0.721,1.376-0.6.036-0.678-1.3-0.464.026v1.347l-0.573.039V65.641Zm0.573,0.352v0.9l0.515-.031a0.64,0.64,0,0,0,.385-0.151,0.38,0.38,0,0,0,.138-0.322,0.348,0.348,0,0,0-.154-0.3,0.731,0.731,0,0,0-.431-0.115h0Zm-33.6-4c1.2-.052,3.873.116,4.051,1.437a3.381,3.381,0,0,1-.548,1.7c-0.194.417-1.084,2.405-1.586,2.426-0.417.021-.1-0.844-0.067-1.039,0.357-1.98-2.624-2.515-4.166-2.423a4.191,4.191,0,0,0-2.177.656c-2.887,2.038-6.4,10.953-4.76,14.353,0.674,1.392,1.607,1.791,3.237,1.721,0.152-.031.652-0.13,0.808-0.164,0.5-.2,1-0.406,1.494-0.614a11.21,11.21,0,0,0,2.906-2.517c0.113-.123.461-0.531,0.554-0.337a1.815,1.815,0,0,1-.163,1.389c-2.419,2.15-6.853,5.824-10.271,4.275a3.628,3.628,0,0,1-1.836-1.92,9.514,9.514,0,0,1-.107-4.938c0.954-5.219,3.809-10.291,8.805-12.733a7.4,7.4,0,0,1,2.629-.984c0.13-.03.259-0.064,0.387-0.095l0.579-.1C256.281,62.052,256.358,62.019,256.434,61.994Zm-50,2.436a0.558,0.558,0,0,1,.079.524q-1,2.287-2.007,4.58c-1.691,4.153-3.387,8.256-4.884,12.485-0.1.277-.625,1.359-0.364,1.623,0.312,0.31,2.084-1.529,2.38-1.834a1.088,1.088,0,0,1,.694-0.47c0.423,0.047.151,0.657,0.035,0.852a10.477,10.477,0,0,1-2.313,2.235,9.908,9.908,0,0,1-2.659,1.611,3.036,3.036,0,0,1-1.071.252,1.19,1.19,0,0,1-.742-1.71c0.557-1.657,1.285-3.232,1.947-4.721,0.855-2.016,1.658-4,2.514-6.014a16.562,16.562,0,0,0,1.376-3.442c-0.025.011-.049,0.027-0.077,0.042q-1.6,1.984-3.2,3.968l-5.068,6.684c-1.157,1.582-2.091,3.524-3.809,4.7a0.7,0.7,0,0,1-.575.2c-0.425-.2.014-1.363,0.084-1.669q0.811-3.464,1.627-6.932c0.617-2.207,1.566-5.048,1.566-7.431-0.027.013-.051,0.028-0.08,0.042a12.807,12.807,0,0,0-1.841,2.956q-1.538,2.263-3.074,4.519c-3.717,5.274-10.4,11.075-16.842,11.76a6.492,6.492,0,0,1-3.8-.407c-3.486-1.99-.674-6.845,1.53-9,0.76-.746,1.905-2.026,2.447-1.652,0.385,0.3-1.053,1.556-1.819,2.544a4.985,4.985,0,0,0-1.148,2.238c-0.406,2.96,3.934,3.417,6.183,3.127q0.75-.127,1.507-0.258c0.46-.162.922-0.319,1.382-0.486a13.631,13.631,0,0,0,3.706-2.492,32.858,32.858,0,0,0,3.951-4.485c2.4-3.079,4.561-6.311,6.733-9.513,0.192-.284.77-0.917,0.581-1.28-0.47-.919-5.7-0.414-6.942-0.32-0.332.023-1.18,0.215-1.016-.36,0.136-.506,1.613-0.933,2.1-0.951,1.333-.592,4.408-0.457,5.905-0.38,1.106,0.052,2.679.072,3.359,0.919,1.444,1.793-1.935,10.35-1.935,13.015,0.026-.01.052-0.026,0.081-0.04h0.037q4.8-6.361,9.6-12.723Q204.5,65.59,206.433,64.43Zm78.948,4.755c0.793,0.069.749,0.219,0.373,1.16-0.115.277-.783,2.057-1.23,1.714-0.028-.063-0.058-0.137-0.088-0.2,0.445-.982-0.491-0.813-1.229-0.7-2.821.42,0.169,2.4,1.3,4.116a1.594,1.594,0,0,1,.136.948c-0.213,1.97-4.2,5.566-6.741,4.534-0.664-.249.956-3.45,1.441-3.279,0.366-.03.044,0.667,0.037,0.97,0.16,0.591,1.458.474,2.013,0.451,0.5-.223,1.3-0.4,1.261-1.123a2.874,2.874,0,0,0-1.042-1.632c-1.93-1.9-2.225-2.535.14-5.175a5.835,5.835,0,0,1,2.878-1.64c0.056-.015.1-0.03,0.157-0.047C284.791,69.262,285.381,69.2,285.381,69.185Zm-58.164,2.8a27.827,27.827,0,0,1,4.258.154c0.575,0,1.152.007,1.729,0.01,0.091,0.053.187,0.107,0.276,0.16,0.005,0.008.006,0.013,0.012,0.022,0.214,0.728-4.015,5.562-4.8,6.423a7.705,7.705,0,0,0-1.539,1.682c0.519,0.7,2.35,1.4,2.874,1a9.312,9.312,0,0,0,1.262-1.24,0.63,0.63,0,0,1,.478-0.26c0.225,0.332-.533,1.25-0.832,1.674-1.32,1.869-2.424,2.686-4.487,1.392a2.9,2.9,0,0,0-1.266-.692,1.767,1.767,0,0,0-.971.574c-0.148.129-.785,0.662-0.945,0.316a1.466,1.466,0,0,1,.2-1.044c0.132-.23.263-0.463,0.394-0.7,0.188-.219.377-0.437,0.564-0.658,0.513-.443,1.214-0.495,1.707-0.908a23.14,23.14,0,0,0,4-4.9c0.175-.283.351-0.562,0.528-0.845V74.074a14.793,14.793,0,0,0-3.866.235,1.8,1.8,0,0,0-.585.988,0.4,0.4,0,0,1-.325.3l-0.242,0C225.6,74.566,226.3,72.259,227.217,71.987Zm-9.519.581a55.2,55.2,0,0,0,5.878-.011c0.06,0.607-1.808,3.2-2.132,3.673a42.616,42.616,0,0,1-3.69,4.392,0.53,0.53,0,0,0-.263.441,2.341,2.341,0,0,0,1.042.524c1.481,0.81,2.173.531,3.286-1.034,0.072-.032.153-0.058,0.225-0.087,0.364,0.167-.605,1.453-0.748,1.682-0.733,1.152-1.747,2.351-3.253,1.917-0.147-.058-0.289-0.111-0.436-0.167-0.586-.26-1.6-1.217-2.312-0.847-0.306.267-.607,0.511-0.917,0.782a1.189,1.189,0,0,1-.576.365,1,1,0,0,1-.08-0.88c1.443-3.079,1.85-1.463,3.275-3.286a17.933,17.933,0,0,0,3.524-4.935,0.91,0.91,0,0,0,.251-0.592,22.138,22.138,0,0,0-3.688.26c-0.793.35-.618,0.947-0.875,1.34a0.366,0.366,0,0,1-.478.113,4.934,4.934,0,0,1,.948-3.193A3.354,3.354,0,0,1,217.7,72.568Zm51.544-2.008c0.392,0.1.285,0.409,0.169,0.767q-1.118,3.036-2.244,6.074a7.71,7.71,0,0,0-.549,2.13c0.04,0,.078-0.006.116-0.006v-0.04c0.58-.025,1.672-1.688,2.1-1.389,0.23,0.156-.109.455-0.2,0.553-0.81.852-3.5,3.433-4.234,3.234-1.08-.29.062-2.148,0.062-2.835-0.025.015-.049,0.031-0.076,0.044-0.891.54-3.929,3.8-4.852,2.961-1-.92,3.011-8.972,2.436-9.206-0.538.121-1.078,0.984-1.616,0.955-0.418-.024.118-0.626,0.254-0.748,0.515-.464,3.461-2.838,4.009-2.048,0.364,0.525-1.816,6.028-2.1,6.924-0.19.589-.377,1.181-0.566,1.773,0,0.072-.085.2,0.022,0.259a2.786,2.786,0,0,0,.448-0.135,8.831,8.831,0,0,0,2.758-2.733c0.452-1.255.9-2.517,1.355-3.774,0.268-.655.539-1.306,0.808-1.959C267.3,71.132,268.37,70.894,269.242,70.56Zm8.412-.53a10.118,10.118,0,0,0-3.885,1.926c-1.437,1.26-3.852,6.751-2.89,8.761,1.327,2.124,5.93-2.317,6.212-3.224-0.015-.032.074-0.259,0.062-0.286-0.04-.015-0.195-0.065-0.235-0.076-0.01,0-.314.306-0.325,0.306a9.634,9.634,0,0,1-1.312,1.164,4.682,4.682,0,0,1-.947.44,1.122,1.122,0,0,1-1.2-.462,2.344,2.344,0,0,1,.151-1.738C274.524,74.851,281.418,70.288,277.654,70.031Zm-3.685,4.7c0.686-2.046.693-2.333,1.716-3.071a1.291,1.291,0,0,1,1.129.064c0.511,0.585-1.168,1.963-2.043,2.771,0-.009-0.939,1.1-0.966.681C273.829,75.145,273.886,74.906,273.969,74.734ZM212.221,73c-1.38.842-2.878,1.18-4.141,2.279-1.485,1.283-4.076,7.109-2.931,8.974a1.741,1.741,0,0,0,1.816.742c1.141-.245,4.614-2.8,5.111-3.954,0-.12,0-0.24,0-0.361a0.329,0.329,0,0,0-.347-0.068c-0.358.306-.713,0.611-1.072,0.912a9.08,9.08,0,0,1-1.564.964,1.291,1.291,0,0,1-1.244-.5,2.292,2.292,0,0,1,.1-1.84C208.405,79.4,217.3,72.774,212.221,73Zm-2.21,2.059a1.131,1.131,0,0,1,.886-0.238c0.3-.063.719-0.017,0.7,0.238a0.151,0.151,0,0,1,.039.038l-0.05.034c-0.276,1.023-1.4,1.926-2.547,3.014,0,0.016-.49.291-0.49,0.3a0.123,0.123,0,0,0-.035,0A10.973,10.973,0,0,1,210.011,75.055ZM208.44,91.007q2.286-.207,4.569-0.406a3.906,3.906,0,0,1-.494.976,18.54,18.54,0,0,1-2.318.237,2.227,2.227,0,0,0-.758.093,4.267,4.267,0,0,0-.464.908c-0.134.289-.27,0.574-0.407,0.859,0.592-.051,1.187-0.1,1.779-0.159,0.288-.029.577-0.056,0.872-0.087-0.02.046-.039,0.087-0.059,0.131-0.014.029-.024,0.056-0.037,0.084a3.285,3.285,0,0,1-.39.763,17.062,17.062,0,0,1-2.077.237,1.451,1.451,0,0,0-.575.079,1.9,1.9,0,0,0-.311.6q-0.474.986-.947,1.974c-0.164.327-.255,0.282-0.635,0.317-0.217.022-.435,0.046-0.652,0.067-0.095.01-.189,0.018-0.283,0.023a0.126,0.126,0,0,1-.034,0V97.694h0.012Q206.836,94.348,208.44,91.007Zm5.845-.524c1.512-.131,3.031-0.268,4.545-0.4v0.008a6.535,6.535,0,0,1-.494.965,2.2,2.2,0,0,1-.759.094c-0.291.027-2.231,0.155-2.327,0.238a3.875,3.875,0,0,0-.442.867c-0.138.293-.277,0.589-0.417,0.882,0.328-.028.66-0.06,0.991-0.088,0.558-.055,1.119-0.107,1.678-0.159V92.9a5.289,5.289,0,0,1-.5.963c-0.137.023-.272,0.042-0.412,0.066-0.63.06-1.263,0.118-1.9,0.18a0.776,0.776,0,0,0-.35.07c-0.146.294-.293,0.585-0.442,0.879s-0.289.608-.431,0.912c0.144-.014.289-0.026,0.435-0.039,0.414-.042.829-0.081,1.242-0.122s0.836-.084,1.253-0.122c0.059-.011.116-0.017,0.175-0.028a4.279,4.279,0,0,1-.5.986,6.793,6.793,0,0,1-1.151.138c-1.13.112-2.26,0.22-3.39,0.331v-0.02h0.012Q212.695,93.789,214.285,90.483Zm6.8-.6q1.408-.12,2.819-0.232a0.406,0.406,0,0,1,.316.128,0.359,0.359,0,0,1,.034.3,7.578,7.578,0,0,1-.7,1.42,7.461,7.461,0,0,1-1.374.142v-0.02h0.007a1.957,1.957,0,0,0,.311-0.742c-0.015-.255-0.87-0.107-1.1-0.078a0.838,0.838,0,0,0-.317.113,3.105,3.105,0,0,0-.673,1.278,0.173,0.173,0,0,0,.178.152c0.565,0.07,2.059-.386,2.39-0.017a0.4,0.4,0,0,1,.059.348,4.532,4.532,0,0,1-.411.927,17.055,17.055,0,0,1-.853,1.711,2.151,2.151,0,0,1-.505.553,1.8,1.8,0,0,1-.6.291,8.223,8.223,0,0,1-1.3.141,6.661,6.661,0,0,1-2.008.1,0.339,0.339,0,0,1-.178-0.33,7.427,7.427,0,0,1,.794-1.773,7.285,7.285,0,0,1,1.272-.139c0.04-.006.08-0.012,0.119-0.021a3.6,3.6,0,0,0-.457,1.191,1.534,1.534,0,0,0,.811-0.006c0.151-.017.3-0.035,0.456-0.049l0.073-.022a0.945,0.945,0,0,0,.5-0.537c0.12-.245.24-0.493,0.361-0.74a0.5,0.5,0,0,0,.086-0.43c-0.224-.339-2.054.308-2.49-0.056a0.378,0.378,0,0,1-.1-0.375,3.9,3.9,0,0,1,.4-0.919c0.212-.434.428-0.868,0.639-1.3a1.911,1.911,0,0,1,1.263-.961l0.075-.02C221.023,89.9,221.055,89.892,221.088,89.881Zm5.635-.5q1.387-.113,2.777-0.229a0.374,0.374,0,0,1,.295.125,0.366,0.366,0,0,1,.039.293,7.375,7.375,0,0,1-.693,1.407,7.24,7.24,0,0,1-1.352.141v-0.01H227.8a1.726,1.726,0,0,0,.308-0.779,1.991,1.991,0,0,0-1.446.118,2.2,2.2,0,0,0-.434.752,0.868,0.868,0,0,0-.166.523c0.131,0.328,2.168-.31,2.5.074a0.445,0.445,0,0,1,.053.389,6.059,6.059,0,0,1-.5,1.084,12.319,12.319,0,0,1-.771,1.531,2.118,2.118,0,0,1-.579.587,1.891,1.891,0,0,1-.512.215c-0.535.056-1.074,0.114-1.61,0.17-0.457.043-.915,0.083-1.375,0.125a0.478,0.478,0,0,1-.313-0.108,0.405,0.405,0,0,1-.092-0.358,8.01,8.01,0,0,1,.768-1.664,1.191,1.191,0,0,1,.484-0.077c0.3-.027.6-0.058,0.9-0.087v0.011a2.506,2.506,0,0,0-.435,1.184,4.194,4.194,0,0,0,1.134-.064c0.048-.009.095-0.016,0.142-0.021a0.985,0.985,0,0,0,.519-0.548c0.116-.244.235-0.493,0.352-0.735a0.474,0.474,0,0,0,.084-0.415c-0.235-.342-1.978.284-2.418-0.045a0.36,0.36,0,0,1-.12-0.365,3.953,3.953,0,0,1,.426-0.98c0.2-.407.4-0.818,0.6-1.224a1.921,1.921,0,0,1,1.327-.986A0.907,0.907,0,0,1,226.723,89.379Zm4.559-.43c0.453-.042.9-0.084,1.354-0.122q-1.219,2.517-2.435,5.044c-0.159.321-.317,0.65-0.473,0.977-0.07.124-.138,0.251-0.2,0.378a8.779,8.779,0,0,1-1.348.159V95.368a0.019,0.019,0,0,1,.012,0Q229.736,92.16,231.282,88.95Zm8.033-.674c0.471-.04.945-0.081,1.416-0.128-0.04,1.1-.087,2.208-0.128,3.313a0.171,0.171,0,0,0,.021,0v-0.01c0.425-.866.849-1.738,1.272-2.608a3.3,3.3,0,0,1,.415-0.8,6.865,6.865,0,0,1,1.232-.136s0,0.007,0,.011q-1.411,2.9-2.818,5.805a0.685,0.685,0,0,1-.378.5c-0.373.035-.749,0.07-1.12,0.1h-0.011c0.02-1.137.039-2.28,0.059-3.423a0.047,0.047,0,0,1-.021.014q-0.681,1.4-1.365,2.811a2.993,2.993,0,0,1-.391.749,5.929,5.929,0,0,1-1.247.145s0-.006,0-0.009h0.012Q237.789,91.44,239.315,88.276Zm10.519-.936,1.275-.114V87.24q-1.28,2.623-2.562,5.25c0.341-.029.685-0.061,1.026-0.092,0.418-.042.835-0.081,1.253-0.122,0.117-.015.233-0.027,0.35-0.041a3.82,3.82,0,0,1-.47.923,3.173,3.173,0,0,1-.862.107c-1.006.1-2.012,0.2-3.019,0.3V93.544h0.009Q248.336,90.44,249.834,87.34Zm10.87-.968,1.677-.15a1.1,1.1,0,0,1,1,.157,0.537,0.537,0,0,1,.082.464,11.024,11.024,0,0,1-.731,1.626c-0.274.039-.974,0.1-1.207,0.118V88.568h0.009c0.126-.251.315-0.648,0.487-1.025a0.366,0.366,0,0,0,.015-0.191,0.222,0.222,0,0,0-.248-0.184c-0.288.016-.645,0.045-0.921,0.08a0.857,0.857,0,0,0-.376.152,2.705,2.705,0,0,0-.661,1.044c-0.2.426-.409,0.85-0.616,1.27q-0.322.67-.641,1.338a0.581,0.581,0,0,0-.038.336,1.161,1.161,0,0,0,.866.037c0.051-.007.293-0.02,0.345-0.031,0.024,0,.116-0.032.14-0.038a1.179,1.179,0,0,0,.459-0.377,5.8,5.8,0,0,0,.5-0.957c0.058-.112.123-0.257,0.185-0.368,0.062-.015.169,0,0.234-0.023,0.336-.032.631-0.05,0.967-0.087a0.063,0.063,0,0,0,0,.014L261.5,91.049c-0.615,1.216-1.661,1.24-2.989,1.355a1.721,1.721,0,0,1-1.347-.111,0.7,0.7,0,0,1-.043-0.619,4.42,4.42,0,0,1,.321-0.726c0.22-.455.442-0.909,0.661-1.36s0.445-.913.667-1.373a4.935,4.935,0,0,1,.6-1.066,2.1,2.1,0,0,1,1.147-.727c0.024-.007.051-0.013,0.076-0.019Zm4-.356c0.4-.033.8-0.069,1.2-0.107V85.92c-0.225.471-2.257,4.647-2.287,4.691s-0.116.248,0.071,0.3a1.4,1.4,0,0,0,.482-0.007c0.134-.012.271-0.032,0.4-0.044a0.336,0.336,0,0,1,.077-0.017,0.8,0.8,0,0,0,.462-0.384c0.647-1.313,1.2-2.484,1.841-3.8,0.076-.156.461-0.735,0.545-0.9,0.439-.042.87-0.07,1.077-0.089v0.009c-0.676,1.383-1.347,2.761-2.024,4.144a3.967,3.967,0,0,1-1,1.579,3.4,3.4,0,0,1-1.768.491,2.881,2.881,0,0,1-1.459-.017,0.458,0.458,0,0,1-.169-0.565,14.247,14.247,0,0,1,.84-1.777Q263.843,87.777,264.7,86.016Zm4.82-.426q1.87-.168,3.74-0.335c-0.073.184-.336,0.688-0.44,0.895-0.15.031-1.636,0.161-1.9,0.182-0.172.017-.428,0.033-0.66,0.062-0.083.182-.339,0.7-0.415,0.854-0.119.246-.237,0.494-0.359,0.742l-0.01.01c0.408-.035.816-0.07,1.224-0.109,0.325-.029.65-0.061,0.98-0.1V87.8c-0.072.147-.146,0.292-0.22,0.439s-0.144.31-.22,0.453c-0.276.035-1.48,0.149-1.744,0.169-0.112.011-.174,0.02-0.319,0.035a0.9,0.9,0,0,0-.137.011c-0.238.466-.506,1.042-0.614,1.259-0.067.127-.131,0.257-0.2,0.381v0.025c0.044,0,.089-0.006.131-0.013q0.629-.058,1.254-0.122l1.179-.116v0.01c-0.148.3-.293,0.6-0.439,0.9-1.25.121-2.5,0.247-3.751,0.369V91.575h0.012Q268.073,88.585,269.521,85.59Zm-31.638,3.046c-0.355-.339-2.267-0.031-2.919.029l-0.119.031a0.812,0.812,0,0,1-.087.017,0.519,0.519,0,0,0-.064.018,2,2,0,0,0-1.189.751,5.515,5.515,0,0,0-.64,1.156c-0.253.52-.5,1.039-0.754,1.554-0.21.438-.421,0.87-0.629,1.305a4.49,4.49,0,0,0-.347.8,0.533,0.533,0,0,0,.218.659,3.43,3.43,0,0,0,1.542-.011,4.349,4.349,0,0,0,2.4-.632,4.506,4.506,0,0,0,1.074-1.686c0.258-.543.523-1.086,0.783-1.628a11.214,11.214,0,0,0,.818-1.747A0.644,0.644,0,0,0,237.883,88.636Zm-1.542,1.38A11,11,0,0,1,235.6,91.6a10.221,10.221,0,0,1-.941,1.828,1.65,1.65,0,0,1-.7.477c-0.035,0-.068.012-0.1,0.018a1.5,1.5,0,0,1-1.058-.044,0.487,0.487,0,0,1-.009-0.4c0.3-.623.594-1.247,0.888-1.867a7.533,7.533,0,0,1,.825-1.561,1.526,1.526,0,0,1,.781-0.49,1.367,1.367,0,0,1,1.047.064A0.523,0.523,0,0,1,236.341,90.016Zm-29.529,1.39c-0.4-.371-2.547-0.026-3.278.036l-0.131.03-0.085.022a2.261,2.261,0,0,0-1.4.822,5.5,5.5,0,0,0-.658,1.191c-0.321.661-.637,1.327-0.956,1.989a12.183,12.183,0,0,0-.869,1.881,0.571,0.571,0,0,0,.248.716,3.953,3.953,0,0,0,1.742-.016,4.826,4.826,0,0,0,2.682-.694,4.221,4.221,0,0,0,1.051-1.6q0.465-.966.932-1.932a10.861,10.861,0,0,0,.842-1.842A0.616,0.616,0,0,0,206.812,91.406Zm-1.691,1.468a14.705,14.705,0,0,1-.878,1.873,8.973,8.973,0,0,1-.889,1.72,1.8,1.8,0,0,1-.707.492l-0.065.013-0.1.023c-0.136.016-.274,0.031-0.414,0.048a0.824,0.824,0,0,1-.819-0.136,0.576,0.576,0,0,1,.014-0.394q0.418-.882.834-1.766a8.577,8.577,0,0,1,1-1.88,1.558,1.558,0,0,1,.824-0.48,1.527,1.527,0,0,1,1.187.074A0.547,0.547,0,0,1,205.121,92.873Zm-4.107-.779a0.525,0.525,0,0,0-.454-0.322,6.392,6.392,0,0,0-1.536.07c-0.965.087-1.935,0.174-2.9,0.258q-1.633,3.4-3.265,6.8a0.021,0.021,0,0,0-.01.014v0.011a11.248,11.248,0,0,0,1.52-.178c0.076-.139.149-0.278,0.224-0.418,0.122-.246.9-1.968,1.006-2.026a3.043,3.043,0,0,1,.873-0.1,1.721,1.721,0,0,1,.941.008,0.266,0.266,0,0,1,.11.279,2.65,2.65,0,0,1-.268.654q-0.333.69-.669,1.387l-0.011.009v0.01h0.012c0.209-.019.423-0.037,0.632-0.055a2.41,2.41,0,0,0,.857-0.115,15.114,15.114,0,0,0,.988-2.108,0.875,0.875,0,0,0-.087-0.518c0.066-.039.126-0.077,0.187-0.112a4.43,4.43,0,0,0,1.211-1.9A4.122,4.122,0,0,0,201.014,92.094Zm-1.8,1.009c-0.094.206-.184,0.415-0.276,0.616a5.163,5.163,0,0,1-.524,1.034,1.179,1.179,0,0,1-.434.3c-0.022.008-.045,0.011-0.068,0.018-0.045.007-.094,0.013-0.14,0.023-0.562.053-1.117,0.1-1.681,0.161h-0.008q0.537-1.13,1.078-2.253a7.945,7.945,0,0,1,1.984-.091A0.2,0.2,0,0,1,199.214,93.1Zm-4.334-.478a0.474,0.474,0,0,0-.435-0.32,6.6,6.6,0,0,0-1.473.076c-1,.091-2.012.177-3.018,0.268q-1.644,3.427-3.286,6.858a0.149,0.149,0,0,0-.011.034c0.369-.036.734-0.072,1.1-0.111,0.145-.021.287-0.037,0.428-0.059a17.6,17.6,0,0,0,.878-1.758,1.494,1.494,0,0,1,.294-0.558,7.7,7.7,0,0,1,1.472-.162,8.383,8.383,0,0,0,1.449-.2c1.153-.335,1.519-1.463,1.969-2.414A3.958,3.958,0,0,0,194.88,92.626Zm-1.825,1.048c-0.149.317-.3,0.632-0.447,0.948a5.274,5.274,0,0,1-.438.864,1.048,1.048,0,0,1-.436.3c-0.026.008-.051,0.015-0.079,0.022-0.082.012-.164,0.02-0.249,0.031-0.519.049-1.037,0.094-1.557,0.14,0,0,.006-0.006.01-0.014q0.579-1.2,1.151-2.411a9.676,9.676,0,0,1,2-.108A0.215,0.215,0,0,1,193.055,93.673Zm53.039-6.011-4.784,6.424a0.014,0.014,0,0,0-.012.005V94.11l1.333-.149c0.279-.135.585-0.971,0.875-1.154a8.74,8.74,0,0,1,1.378-.155c-0.1.379-.195,0.754-0.291,1.134,0.443-.05.893-0.1,1.336-0.143q0.765-3.052,1.528-6.106Q246.776,87.6,246.094,87.662ZM245.522,90.3c-0.125.453-.254,0.905-0.375,1.359-0.049.014-.094,0.024-0.143,0.035-0.25.02-.5,0.044-0.752,0.065a0.148,0.148,0,0,1,0-.021l1.367-1.881A1.17,1.17,0,0,1,245.522,90.3ZM292.19,81.54a1.074,1.074,0,0,0-.3-0.121c-18.36,1.249-182.36,12.769-197.874,14.039A42.8,42.8,0,0,1,83,102.007C173.776,90.232,163,93.42,292.19,81.54Zm-134.738-7.7a1.681,1.681,0,0,0-1.8-.594c-1.051.446-2.106,0.886-3.155,1.329a64.405,64.405,0,0,0-7.16,3.93q-1.794,1.125-3.589,2.254c-0.049,0-.1,0-0.143,0,0.221-.3.443-0.613,0.666-0.921,2.369-3.045,4.909-6,7.135-9.121a8.924,8.924,0,0,0,1.753-3.109,2.016,2.016,0,0,0-1.358-2.462c-0.509,0-1.015.014-1.522,0.02-0.059.028-.121,0.053-0.179,0.08-0.1.016-.192,0.031-0.284,0.045-0.072.018-.142,0.031-0.215,0.043-0.128.032-.258,0.061-0.388,0.092-0.153.031-.309,0.058-0.463,0.091l-0.887.176c-0.129.032-.26,0.06-0.387,0.09-0.144.031-.286,0.058-0.429,0.091l-1.775.425c-0.212.06-.425,0.117-0.636,0.171l-5.29,1.564a98.544,98.544,0,0,0-21.014,9.482,99.592,99.592,0,0,0-16.278,12.075c-1.4,1.268-4.217,3.873-4.228,3.912q6.671-.417,13.345-0.825c0.9-.042,3.816-0.029,4.43-0.34,0.9-1.072,1.813-2.215,2.716-3.287,0.244-.326.514-0.665,0.8-1.012a7.471,7.471,0,0,1-1.08-3.863,7.6,7.6,0,0,1,13.012-5.285c0.494-.253,1-0.505,1.519-0.755,0.665-.3,1.329-0.614,2-0.919,1-.41,7.239-2.931,7.979-2.4a0.8,0.8,0,0,1-.062.941,57.093,57.093,0,0,1-7.47,11.2c-1.136,1.4-1.89,2.346-3.026,3.747-0.01,0-.367.5-0.381,0.5a2.657,2.657,0,0,0,.629-0.344c1.3-.924,3.119-2.131,3.689-2.519,4.038-2.757,9.786-5.709,12.792-6.094,0.371-.047.99,0.292,0.5,1.25a72.77,72.77,0,0,1-5.007,7.079h-0.035v0.072c2.056-.123,4.116-0.252,6.176-0.373l2.5-.222c0.312-.531.934-1.55,1.178-1.97a85.627,85.627,0,0,0,4.091-8.163q0.741-1.985,1.477-3.979A3.217,3.217,0,0,0,157.452,73.837Zm-40.334,14.2a7.6,7.6,0,0,0,14.109-3.863,7.5,7.5,0,0,0-2.177-5.285A38.017,38.017,0,0,0,117.118,88.04Zm173.333-23.4A2.531,2.531,0,1,0,293,67.174,2.538,2.538,0,0,0,290.451,64.643Zm0,4.623a2.092,2.092,0,1,1,2.1-2.092A2.1,2.1,0,0,1,290.451,69.266Z" transform="translate(-83 -62)"/>
</svg>
